<svg width="15" height="14" viewBox="0 0 15 14" fill="none" xmlns="http://www.w3.org/2000/svg">
<path d="M14.3452 0.101126C13.6683 -0.263345 12.9134 0.439564 12.4708 0.856103C11.4555 1.84538 10.5964 2.99087 9.63311 4.03221C8.56573 5.1777 7.57645 6.32318 6.48303 7.44267C5.85823 8.06748 5.18135 8.74435 4.76481 9.52536C3.8276 8.61414 3.02055 7.62486 1.97921 6.81786C1.22423 6.24512 -0.0253892 5.82858 0.000644517 7.20837C0.0527119 9.00473 1.64077 10.9312 2.81228 12.1548C3.30692 12.6754 3.95777 13.2221 4.71274 13.2482C5.62392 13.3002 6.56114 12.2068 7.10784 11.6081C8.07113 10.5667 8.85214 9.39515 9.73725 8.32782C10.8827 6.922 12.0542 5.54217 13.1737 4.11031C13.8766 3.22517 16.0895 1.0383 14.3452 0.101126ZM1.14608 7.10423C1.12005 7.10423 1.09402 7.10423 1.04195 7.13022C0.937815 7.10423 0.859714 7.07816 0.755579 7.02609C0.83368 6.97402 0.963849 7.00005 1.14608 7.10423Z" fill="#76923C"/>
</svg>
